<svg xmlns="http://www.w3.org/2000/svg" width="344" height="96" viewBox="0 0 344 96" role="img" aria-label="Francesco Gizzi — Allineare per crescere"><rect width="344" height="96" fill="#121212"></rect><g transform="translate(8 14.666666666666666) scale(0.6666666666666666)"><path d="M18 94 L50 56 M82 94 L50 56" fill="none" stroke="#F4F1EA" stroke-width="6" stroke-linecap="round" stroke-linejoin="round"></path><path d="M50 56 V8" fill="none" stroke="#C2A276" stroke-width="8" stroke-linecap="round"></path></g><path d="M94.86 46L91.29 46L91.29 22.09L106.98 22.09L106.98 25.07L94.86 25.07L94.86 31.82L105.70 31.82L105.70 34.79L94.86 34.79L94.86 46Z M112.90 46L109.53 46L109.53 28.07L112.73 28.07L112.73 31.21Q113.55 29.51 115.02 28.62L115.02 28.62Q116.60 27.66 118.29 27.66L118.29 27.66Q118.77 27.66 119.26 27.74Q119.74 27.82 120.17 28.02L120.17 28.02L119.79 31.09Q118.84 30.79 117.91 30.79L117.91 30.79Q117.28 30.79 116.43 31.03Q115.57 31.27 114.77 31.96Q113.98 32.64 113.44 33.96Q112.90 35.28 112.90 37.42L112.90 37.42L112.90 46Z M127.40 46.40L127.40 46.40Q125.62 46.40 124.27 45.73Q122.92 45.07 122.16 43.88Q121.41 42.68 121.41 41.10L121.41 41.10Q121.41 39.39 122.40 38.04Q123.40 36.69 125.42 35.90Q127.43 35.11 130.50 35.11L130.50 35.11L133.08 35.11L133.08 34.45Q133.08 32.40 132.27 31.32Q131.47 30.25 129.59 30.25L129.59 30.25Q127.80 30.25 126.84 31.17Q125.89 32.09 125.81 33.68L125.81 33.68L122.15 32.92Q122.34 31.47 123.30 30.28Q124.26 29.08 125.91 28.37Q127.57 27.66 129.81 27.66L129.81 27.66Q132.03 27.66 133.48 28.46Q134.92 29.27 135.63 30.85Q136.33 32.44 136.33 34.79L136.33 34.79L136.33 42.41Q136.33 42.96 136.49 43.14Q136.65 43.33 137.16 43.33L137.16 43.33L138.12 43.33L138.12 46L136.18 46Q134.84 46 134.01 45.22L134.01 45.22Q133.21 44.46 133.18 43.24L133.18 43.24Q133.09 43.39 132.99 43.56L132.99 43.56Q132.51 44.31 131.76 44.95Q131.00 45.60 129.92 46Q128.84 46.40 127.40 46.40ZM128.25 43.79L128.25 43.79Q129.56 43.79 130.66 43.15Q131.77 42.51 132.43 41.17Q133.09 39.82 133.09 37.70L133.09 37.70L133.09 37.48L130.49 37.48Q128.40 37.48 127.20 38.03Q126.01 38.58 125.52 39.38Q125.03 40.19 125.03 40.97L125.03 40.97Q125.03 41.73 125.37 42.37Q125.71 43.01 126.42 43.40Q127.13 43.79 128.25 43.79Z M144.18 46L140.81 46L140.81 28.07L144.01 28.07L144.01 31.17Q144.76 29.71 146.17 28.72L146.17 28.72Q147.70 27.66 149.89 27.66L149.89 27.66Q151.85 27.66 153.21 28.54Q154.57 29.42 155.29 31.01Q156.01 32.60 156.01 34.81L156.01 34.81L156.01 46L152.64 46L152.64 35.06Q152.64 32.92 151.81 31.64Q150.98 30.36 149.04 30.36L149.04 30.36Q146.92 30.36 145.55 32.04Q144.18 33.71 144.18 36.94L144.18 36.94L144.18 46Z M167.30 46.42L167.30 46.42Q164.69 46.42 162.78 45.27Q160.87 44.12 159.84 42.02Q158.81 39.91 158.81 37.04L158.81 37.04Q158.81 34.15 159.84 32.05Q160.87 29.95 162.77 28.80Q164.67 27.66 167.28 27.66L167.28 27.66Q169.24 27.66 170.82 28.37Q172.39 29.08 173.50 30.44Q174.60 31.79 175.08 33.71L175.08 33.71L171.74 34.53Q171.30 32.49 170.16 31.42Q169.02 30.34 167.28 30.34L167.28 30.34Q164.92 30.34 163.68 32.11Q162.45 33.88 162.45 37.05L162.45 37.05Q162.45 40.22 163.68 41.97Q164.92 43.73 167.28 43.73L167.28 43.73Q169.01 43.73 170.14 42.70Q171.28 41.68 171.74 39.71L171.74 39.71L175.03 40.50Q174.65 41.95 173.92 43.04Q173.19 44.14 172.18 44.89Q171.18 45.63 169.94 46.02Q168.71 46.42 167.30 46.42Z M185.40 46.42L185.40 46.42Q182.81 46.42 180.89 45.26Q178.96 44.11 177.89 42.01Q176.82 39.91 176.82 37.04Q176.82 34.16 177.88 32.06Q178.94 29.96 180.85 28.81Q182.76 27.66 185.30 27.66L185.30 27.66Q186.75 27.66 188.21 28.11Q189.67 28.57 190.88 29.70Q192.09 30.83 192.82 32.79Q193.55 34.76 193.55 37.78L193.55 37.78L180.47 37.78Q180.60 40.42 181.73 41.97L181.73 41.97Q182.99 43.73 185.38 43.73L185.38 43.73Q187.08 43.73 188.24 42.87Q189.40 42.02 189.97 40.37L189.97 40.37L193.17 41.35Q192.52 43.00 191.39 44.12Q190.26 45.25 188.74 45.83Q187.21 46.42 185.40 46.42ZM180.55 35.38L180.55 35.38L189.80 35.38Q189.63 33.86 189.15 32.83L189.15 32.83Q188.51 31.51 187.48 30.90Q186.46 30.29 185.23 30.29L185.23 30.29Q183.72 30.29 182.65 31.10Q181.58 31.91 181.02 33.42L181.02 33.42Q180.69 34.30 180.55 35.38Z M202.94 46.42L202.94 46.42Q200.97 46.42 199.32 45.78Q197.68 45.15 196.59 43.87Q195.50 42.58 195.16 40.57L195.16 40.57L198.51 39.92Q198.67 41.87 199.85 42.83Q201.02 43.79 202.84 43.79L202.84 43.79Q204.67 43.79 205.69 42.92Q206.71 42.05 206.71 40.82L206.71 40.82Q206.71 39.76 205.97 39.11Q205.23 38.46 203.72 38.20L203.72 38.20L201.70 37.82Q200.80 37.67 199.81 37.38Q198.82 37.08 197.97 36.55Q197.11 36.02 196.57 35.14Q196.03 34.26 196.03 32.92L196.03 32.92Q196.03 31.14 196.96 29.99Q197.89 28.83 199.46 28.24Q201.03 27.66 202.91 27.66L202.91 27.66Q204.85 27.66 206.34 28.25Q207.84 28.85 208.79 29.97Q209.75 31.09 210.05 32.70L210.05 32.70L206.59 33.40Q206.48 32.47 206.08 31.76Q205.68 31.06 204.92 30.66Q204.15 30.26 202.91 30.26L202.91 30.26Q201.45 30.26 200.43 30.87Q199.41 31.47 199.41 32.67L199.41 32.67Q199.41 33.37 199.80 33.86Q200.19 34.35 200.93 34.65Q201.68 34.96 202.78 35.19L202.78 35.19L204.88 35.62Q206.29 35.89 207.50 36.45Q208.70 37.00 209.44 38.01Q210.18 39.01 210.18 40.65L210.18 40.65Q210.18 42.46 209.25 43.76Q208.32 45.05 206.69 45.73Q205.07 46.42 202.94 46.42Z M220.70 46.42L220.70 46.42Q218.09 46.42 216.18 45.27Q214.27 44.12 213.24 42.02Q212.21 39.91 212.21 37.04L212.21 37.04Q212.21 34.15 213.24 32.05Q214.27 29.95 216.17 28.80Q218.07 27.66 220.68 27.66L220.68 27.66Q222.64 27.66 224.22 28.37Q225.79 29.08 226.90 30.44Q228.00 31.79 228.48 33.71L228.48 33.71L225.15 34.53Q224.70 32.49 223.56 31.42Q222.42 30.34 220.68 30.34L220.68 30.34Q218.32 30.34 217.09 32.11Q215.85 33.88 215.85 37.05L215.85 37.05Q215.85 40.22 217.09 41.97Q218.32 43.73 220.68 43.73L220.68 43.73Q222.41 43.73 223.54 42.70Q224.68 41.68 225.15 39.71L225.15 39.71L228.43 40.50Q228.05 41.95 227.32 43.04Q226.59 44.14 225.59 44.89Q224.58 45.63 223.35 46.02Q222.11 46.42 220.70 46.42Z M238.89 46.42L238.89 46.42Q236.31 46.42 234.35 45.22Q232.38 44.02 231.28 41.92Q230.19 39.81 230.19 37.04L230.19 37.04Q230.19 34.26 231.28 32.15Q232.38 30.05 234.35 28.85Q236.31 27.66 238.89 27.66L238.89 27.66Q241.46 27.66 243.43 28.85Q245.39 30.05 246.49 32.15Q247.58 34.26 247.58 37.04L247.58 37.04Q247.58 39.81 246.49 41.92Q245.39 44.02 243.43 45.22Q241.46 46.42 238.89 46.42ZM238.89 43.73L238.89 43.73Q241.24 43.73 242.60 41.92Q243.97 40.12 243.97 37.04L243.97 37.04Q243.97 33.93 242.60 32.14Q241.24 30.34 238.89 30.34L238.89 30.34Q236.53 30.34 235.17 32.14Q233.81 33.93 233.81 37.04L233.81 37.04Q233.81 40.12 235.17 41.92Q236.53 43.73 238.89 43.73Z  M268.62 46.42L268.62 46.42Q264.69 46.42 262.04 44.84Q259.39 43.26 258.05 40.48Q256.70 37.70 256.70 34.10L256.70 34.10Q256.70 30.43 258.05 27.64Q259.39 24.85 261.94 23.26Q264.49 21.68 268.07 21.68L268.07 21.68Q270.50 21.68 272.55 22.48Q274.60 23.29 276.04 24.91Q277.49 26.53 278.08 29.02L278.08 29.02L274.30 29.90Q273.75 27.17 272.08 25.91Q270.41 24.65 268.07 24.65L268.07 24.65Q265.70 24.65 264.01 25.85Q262.31 27.04 261.42 29.19Q260.52 31.34 260.52 34.23L260.52 34.23Q260.52 36.79 261.31 38.88Q262.10 40.97 263.83 42.21Q265.57 43.44 268.44 43.44L268.44 43.44Q270.13 43.44 271.81 42.92Q273.49 42.40 274.70 40.92L274.70 40.92L274.70 36.52L266.98 36.52L266.98 33.55L278.05 33.55L278.05 42.20Q276.72 44.01 275.04 44.91Q273.35 45.82 271.67 46.12Q269.98 46.42 268.62 46.42Z M284.78 46L281.41 46L281.41 28.07L284.78 28.07L284.78 46ZM283.11 25.30L283.11 25.30Q281.99 25.30 281.26 24.56Q280.52 23.82 280.52 22.72L280.52 22.72Q280.52 21.60 281.26 20.87Q281.99 20.13 283.11 20.13L283.11 20.13Q284.22 20.13 284.96 20.87Q285.70 21.60 285.70 22.72L285.70 22.72Q285.70 23.82 284.96 24.56Q284.22 25.30 283.11 25.30Z M302.57 46L287.68 46L287.68 43.29L298.09 30.94L288.13 30.94L288.13 28.07L302.22 28.07L302.22 30.78L291.70 43.13L302.57 43.13L302.57 46Z M319.05 46L304.16 46L304.16 43.29L314.57 30.94L304.61 30.94L304.61 28.07L318.70 28.07L318.70 30.78L308.18 43.13L319.05 43.13L319.05 46Z M325.34 46L321.97 46L321.97 28.07L325.34 28.07L325.34 46ZM323.66 25.30L323.66 25.30Q322.55 25.30 321.81 24.56Q321.07 23.82 321.07 22.72L321.07 22.72Q321.07 21.60 321.81 20.87Q322.55 20.13 323.66 20.13L323.66 20.13Q324.77 20.13 325.51 20.87Q326.25 21.60 326.25 22.72L326.25 22.72Q326.25 23.82 325.51 24.56Q324.77 25.30 323.66 25.30Z " fill="#F4F1EA"></path><path d="M90.99 68L89.76 68L92.94 60.27L94.22 60.27L97.39 68L96.15 68L95.22 65.58L91.93 65.58L90.99 68ZM92.29 64.64L94.86 64.64L93.58 61.33L92.29 64.64Z M106.39 68L101.41 68L101.41 60.27L102.57 60.27L102.57 67.04L106.39 67.04L106.39 68Z M115.58 68L110.59 68L110.59 60.27L111.75 60.27L111.75 67.04L115.58 67.04L115.58 68Z M122.59 68L119.36 68L119.36 67.08L120.40 67.08L120.40 61.18L119.36 61.18L119.36 60.27L122.59 60.27L122.59 61.18L121.56 61.18L121.56 67.08L122.59 67.08L122.59 68Z M128.07 68L126.96 68L126.96 60.27L128.58 60.27L132.28 66.73L132.28 60.27L133.39 60.27L133.39 68L131.86 68L128.07 61.51L128.07 68Z M143.44 68L138.17 68L138.17 60.27L143.36 60.27L143.36 61.23L139.32 61.23L139.32 63.43L142.83 63.43L142.83 64.37L139.32 64.37L139.32 67.04L143.44 67.04L143.44 68Z M148.23 68L146.99 68L150.18 60.27L151.45 60.27L154.62 68L153.39 68L152.45 65.58L149.17 65.58L148.23 68ZM149.53 64.64L152.09 64.64L150.81 61.33L149.53 64.64Z M159.80 68L158.64 68L158.64 60.27L161.78 60.27Q164.49 60.27 164.49 62.35L164.49 62.35Q164.49 64.11 162.55 64.40L162.55 64.40L164.52 68L163.21 68L161.29 64.46L159.80 64.46L159.80 68ZM159.80 61.19L159.80 63.53L161.75 63.53Q162.50 63.53 162.91 63.23Q163.32 62.94 163.32 62.37L163.32 62.37Q163.32 61.80 162.91 61.50Q162.50 61.19 161.75 61.19L161.75 61.19L159.80 61.19Z M174.12 68L168.85 68L168.85 60.27L174.04 60.27L174.04 61.23L170.00 61.23L170.00 63.43L173.51 63.43L173.51 64.37L170.00 64.37L170.00 67.04L174.12 67.04L174.12 68Z  M185.33 68L184.17 68L184.17 60.27L187.18 60.27Q188.53 60.27 189.21 60.83Q189.89 61.39 189.89 62.46L189.89 62.46Q189.89 63.52 189.20 64.08Q188.51 64.65 187.11 64.65L187.11 64.65L185.33 64.65L185.33 68ZM185.33 61.19L185.33 63.72L187.15 63.72Q187.92 63.72 188.32 63.39Q188.73 63.06 188.73 62.47L188.73 62.47Q188.73 61.95 188.36 61.57Q187.99 61.19 187.14 61.19L187.14 61.19L185.33 61.19Z M199.46 68L194.19 68L194.19 60.27L199.38 60.27L199.38 61.23L195.34 61.23L195.34 63.43L198.85 63.43L198.85 64.37L195.34 64.37L195.34 67.04L199.46 67.04L199.46 68Z M204.92 68L203.77 68L203.77 60.27L206.90 60.27Q209.61 60.27 209.61 62.35L209.61 62.35Q209.61 64.11 207.68 64.40L207.68 64.40L209.64 68L208.34 68L206.41 64.46L204.92 64.46L204.92 68ZM204.92 61.19L204.92 63.53L206.88 63.53Q207.63 63.53 208.04 63.23Q208.44 62.94 208.44 62.37L208.44 62.37Q208.44 61.80 208.04 61.50Q207.63 61.19 206.87 61.19L206.87 61.19L204.92 61.19Z  M223.02 68.13L223.02 68.13Q221.90 68.13 221.07 67.62Q220.24 67.11 219.78 66.20Q219.32 65.29 219.32 64.10L219.32 64.10Q219.32 62.94 219.76 62.05Q220.21 61.15 221.03 60.64Q221.86 60.13 223.00 60.13L223.00 60.13Q224.20 60.13 225.08 60.75Q225.96 61.36 226.25 62.59L226.25 62.59L225.05 62.87Q224.83 61.96 224.29 61.53Q223.75 61.09 222.99 61.09L222.99 61.09Q222.22 61.09 221.68 61.48Q221.13 61.87 220.84 62.55Q220.56 63.24 220.56 64.13L220.56 64.13Q220.56 65.04 220.85 65.72Q221.15 66.41 221.68 66.79Q222.22 67.17 222.96 67.17L222.96 67.17Q223.75 67.17 224.32 66.70Q224.90 66.22 225.06 65.37L225.06 65.37L226.30 65.67Q225.99 66.87 225.10 67.50Q224.22 68.13 223.02 68.13Z M231.73 68L230.58 68L230.58 60.27L233.71 60.27Q236.42 60.27 236.42 62.35L236.42 62.35Q236.42 64.11 234.49 64.40L234.49 64.40L236.45 68L235.15 68L233.22 64.46L231.73 64.46L231.73 68ZM231.73 61.19L231.73 63.53L233.69 63.53Q234.44 63.53 234.85 63.23Q235.25 62.94 235.25 62.37L235.25 62.37Q235.25 61.80 234.85 61.50Q234.44 61.19 233.68 61.19L233.68 61.19L231.73 61.19Z M246.05 68L240.78 68L240.78 60.27L245.98 60.27L245.98 61.23L241.94 61.23L241.94 63.43L245.44 63.43L245.44 64.37L241.94 64.37L241.94 67.04L246.05 67.04L246.05 68Z M253.06 68.13L253.06 68.13Q252.18 68.13 251.50 67.84Q250.82 67.55 250.39 66.99Q249.96 66.43 249.83 65.63L249.83 65.63L251.14 65.36Q251.17 66.25 251.66 66.72Q252.15 67.19 253.04 67.19L253.04 67.19Q253.58 67.19 253.95 67.02Q254.31 66.85 254.50 66.55Q254.69 66.24 254.69 65.84L254.69 65.84Q254.69 65.29 254.35 65.01Q254.01 64.73 253.43 64.61L253.43 64.61L252.48 64.40Q252.17 64.34 251.79 64.22Q251.40 64.10 251.05 63.88Q250.70 63.65 250.47 63.27Q250.24 62.89 250.24 62.30L250.24 62.30Q250.24 61.54 250.63 61.07Q251.02 60.59 251.65 60.36Q252.27 60.13 253.01 60.13L253.01 60.13Q253.82 60.13 254.41 60.39Q255.01 60.64 255.38 61.11Q255.75 61.58 255.88 62.25L255.88 62.25L254.59 62.52Q254.55 62.05 254.37 61.74Q254.18 61.42 253.84 61.25Q253.50 61.08 252.98 61.08L252.98 61.08Q252.55 61.08 252.20 61.20Q251.84 61.33 251.63 61.58Q251.42 61.83 251.42 62.23L251.42 62.23Q251.42 62.67 251.75 62.92Q252.09 63.18 252.81 63.34L252.81 63.34L253.77 63.56Q254.31 63.68 254.80 63.92Q255.30 64.17 255.60 64.62Q255.91 65.07 255.91 65.80L255.91 65.80Q255.91 66.54 255.56 67.06Q255.22 67.59 254.58 67.86Q253.94 68.13 253.06 68.13Z M263.59 68.13L263.59 68.13Q262.48 68.13 261.64 67.62Q260.81 67.11 260.35 66.20Q259.89 65.29 259.89 64.10L259.89 64.10Q259.89 62.94 260.34 62.05Q260.78 61.15 261.60 60.64Q262.43 60.13 263.58 60.13L263.58 60.13Q264.77 60.13 265.66 60.75Q266.54 61.36 266.82 62.59L266.82 62.59L265.62 62.87Q265.40 61.96 264.86 61.53Q264.32 61.09 263.57 61.09L263.57 61.09Q262.79 61.09 262.25 61.48Q261.70 61.87 261.42 62.55Q261.13 63.24 261.13 64.13L261.13 64.13Q261.13 65.04 261.42 65.72Q261.72 66.41 262.26 66.79Q262.79 67.17 263.53 67.17L263.53 67.17Q264.32 67.17 264.90 66.70Q265.47 66.22 265.63 65.37L265.63 65.37L266.87 65.67Q266.56 66.87 265.67 67.50Q264.79 68.13 263.59 68.13Z M276.42 68L271.15 68L271.15 60.27L276.34 60.27L276.34 61.23L272.30 61.23L272.30 63.43L275.81 63.43L275.81 64.37L272.30 64.37L272.30 67.04L276.42 67.04L276.42 68Z M281.88 68L280.73 68L280.73 60.27L283.86 60.27Q286.57 60.27 286.57 62.35L286.57 62.35Q286.57 64.11 284.64 64.40L284.64 64.40L286.60 68L285.30 68L283.37 64.46L281.88 64.46L281.88 68ZM281.88 61.19L281.88 63.53L283.84 63.53Q284.59 63.53 285.00 63.23Q285.40 62.94 285.40 62.37L285.40 62.37Q285.40 61.80 285.00 61.50Q284.59 61.19 283.83 61.19L283.83 61.19L281.88 61.19Z M296.20 68L290.93 68L290.93 60.27L296.13 60.27L296.13 61.23L292.09 61.23L292.09 63.43L295.60 63.43L295.60 64.37L292.09 64.37L292.09 67.04L296.20 67.04L296.20 68Z " fill="#A39E94"></path></svg>