<svg xmlns="http://www.w3.org/2000/svg" viewBox="0 0 640 400" width="640" height="400">
<defs><linearGradient id="bg" x1="0" y1="0" x2="1" y2="1"><stop offset="0" stop-color="#f8f6f0"/><stop offset="1" stop-color="#efe9dc"/></linearGradient></defs>
<rect width="640" height="400" fill="url(#bg)"/>
<circle cx="480" cy="90" r="150" fill="none" stroke="#e7dcc2" stroke-width="38" opacity="0.5"/>
<circle cx="70" cy="78" r="1.5" fill="#e7dcc2"/><circle cx="70" cy="136" r="1.5" fill="#e7dcc2"/><circle cx="70" cy="194" r="1.5" fill="#e7dcc2"/><circle cx="70" cy="252" r="1.5" fill="#e7dcc2"/><circle cx="70" cy="310" r="1.5" fill="#e7dcc2"/><circle cx="128" cy="78" r="1.5" fill="#e7dcc2"/><circle cx="128" cy="136" r="1.5" fill="#e7dcc2"/><circle cx="128" cy="194" r="1.5" fill="#e7dcc2"/><circle cx="128" cy="252" r="1.5" fill="#e7dcc2"/><circle cx="128" cy="310" r="1.5" fill="#e7dcc2"/><circle cx="186" cy="78" r="1.5" fill="#e7dcc2"/><circle cx="186" cy="136" r="1.5" fill="#e7dcc2"/><circle cx="186" cy="194" r="1.5" fill="#e7dcc2"/><circle cx="186" cy="252" r="1.5" fill="#e7dcc2"/><circle cx="186" cy="310" r="1.5" fill="#e7dcc2"/><circle cx="244" cy="78" r="1.5" fill="#e7dcc2"/><circle cx="244" cy="136" r="1.5" fill="#e7dcc2"/><circle cx="244" cy="194" r="1.5" fill="#e7dcc2"/><circle cx="244" cy="252" r="1.5" fill="#e7dcc2"/><circle cx="244" cy="310" r="1.5" fill="#e7dcc2"/><circle cx="302" cy="78" r="1.5" fill="#e7dcc2"/><circle cx="302" cy="136" r="1.5" fill="#e7dcc2"/><circle cx="302" cy="194" r="1.5" fill="#e7dcc2"/><circle cx="302" cy="252" r="1.5" fill="#e7dcc2"/><circle cx="302" cy="310" r="1.5" fill="#e7dcc2"/><circle cx="360" cy="78" r="1.5" fill="#e7dcc2"/><circle cx="360" cy="136" r="1.5" fill="#e7dcc2"/><circle cx="360" cy="194" r="1.5" fill="#e7dcc2"/><circle cx="360" cy="252" r="1.5" fill="#e7dcc2"/><circle cx="360" cy="310" r="1.5" fill="#e7dcc2"/><circle cx="418" cy="78" r="1.5" fill="#e7dcc2"/><circle cx="418" cy="136" r="1.5" fill="#e7dcc2"/><circle cx="418" cy="194" r="1.5" fill="#e7dcc2"/><circle cx="418" cy="252" r="1.5" fill="#e7dcc2"/><circle cx="418" cy="310" r="1.5" fill="#e7dcc2"/><circle cx="476" cy="78" r="1.5" fill="#e7dcc2"/><circle cx="476" cy="136" r="1.5" fill="#e7dcc2"/><circle cx="476" cy="194" r="1.5" fill="#e7dcc2"/><circle cx="476" cy="252" r="1.5" fill="#e7dcc2"/><circle cx="476" cy="310" r="1.5" fill="#e7dcc2"/><circle cx="534" cy="78" r="1.5" fill="#e7dcc2"/><circle cx="534" cy="136" r="1.5" fill="#e7dcc2"/><circle cx="534" cy="194" r="1.5" fill="#e7dcc2"/><circle cx="534" cy="252" r="1.5" fill="#e7dcc2"/><circle cx="534" cy="310" r="1.5" fill="#e7dcc2"/>
<rect x="16" y="16" width="608" height="368" fill="none" stroke="#e0d8c7" stroke-width="1.5" rx="14"/>
<g transform="rotate(0 320 200)"><line x1="220" y1="150" x2="310" y2="250" stroke="#bb9a55" fill="none" stroke-width="2.4" stroke-linecap="round" stroke-linejoin="round" opacity="0.5"/><line x1="420" y1="140" x2="310" y2="250" stroke="#bb9a55" fill="none" stroke-width="2.4" stroke-linecap="round" stroke-linejoin="round" opacity="0.5"/><line x1="310" y1="250" x2="470" y2="260" stroke="#bb9a55" fill="none" stroke-width="2.4" stroke-linecap="round" stroke-linejoin="round" opacity="0.5"/><line x1="310" y1="250" x2="180" y2="270" stroke="#bb9a55" fill="none" stroke-width="2.4" stroke-linecap="round" stroke-linejoin="round" opacity="0.5"/><line x1="220" y1="150" x2="180" y2="270" stroke="#bb9a55" fill="none" stroke-width="2.4" stroke-linecap="round" stroke-linejoin="round" opacity="0.5"/><circle cx="220" cy="150" r="14" stroke="#bb9a55" fill="none" stroke-width="4.5" stroke-linecap="round" stroke-linejoin="round"/><circle cx="420" cy="140" r="14" stroke="#bb9a55" fill="none" stroke-width="4.5" stroke-linecap="round" stroke-linejoin="round"/><circle cx="310" cy="250" r="14" stroke="#bb9a55" fill="none" stroke-width="4.5" stroke-linecap="round" stroke-linejoin="round"/><circle cx="470" cy="260" r="14" stroke="#bb9a55" fill="none" stroke-width="4.5" stroke-linecap="round" stroke-linejoin="round"/><circle cx="180" cy="270" r="14" stroke="#bb9a55" fill="none" stroke-width="4.5" stroke-linecap="round" stroke-linejoin="round"/></g>
<rect x="40" y="356" width="28" height="3" rx="1.5" fill="#bb9a55"/>
</svg>