<svg xmlns="http://www.w3.org/2000/svg" viewBox="0 0 640 400" width="640" height="400">
<defs><linearGradient id="bg" x1="0" y1="0" x2="1" y2="1"><stop offset="0" stop-color="#f7f5ef"/><stop offset="1" stop-color="#efe9dd"/></linearGradient></defs>
<rect width="640" height="400" fill="url(#bg)"/>
<circle cx="60" cy="70" r="1.4" fill="#d9d0bd"/><circle cx="60" cy="122" r="1.4" fill="#d9d0bd"/><circle cx="60" cy="174" r="1.4" fill="#d9d0bd"/><circle cx="60" cy="226" r="1.4" fill="#d9d0bd"/><circle cx="60" cy="278" r="1.4" fill="#d9d0bd"/><circle cx="60" cy="330" r="1.4" fill="#d9d0bd"/><circle cx="112" cy="70" r="1.4" fill="#d9d0bd"/><circle cx="112" cy="122" r="1.4" fill="#d9d0bd"/><circle cx="112" cy="174" r="1.4" fill="#d9d0bd"/><circle cx="112" cy="226" r="1.4" fill="#d9d0bd"/><circle cx="112" cy="278" r="1.4" fill="#d9d0bd"/><circle cx="112" cy="330" r="1.4" fill="#d9d0bd"/><circle cx="164" cy="70" r="1.4" fill="#d9d0bd"/><circle cx="164" cy="122" r="1.4" fill="#d9d0bd"/><circle cx="164" cy="174" r="1.4" fill="#d9d0bd"/><circle cx="164" cy="226" r="1.4" fill="#d9d0bd"/><circle cx="164" cy="278" r="1.4" fill="#d9d0bd"/><circle cx="164" cy="330" r="1.4" fill="#d9d0bd"/><circle cx="216" cy="70" r="1.4" fill="#d9d0bd"/><circle cx="216" cy="122" r="1.4" fill="#d9d0bd"/><circle cx="216" cy="174" r="1.4" fill="#d9d0bd"/><circle cx="216" cy="226" r="1.4" fill="#d9d0bd"/><circle cx="216" cy="278" r="1.4" fill="#d9d0bd"/><circle cx="216" cy="330" r="1.4" fill="#d9d0bd"/><circle cx="268" cy="70" r="1.4" fill="#d9d0bd"/><circle cx="268" cy="122" r="1.4" fill="#d9d0bd"/><circle cx="268" cy="174" r="1.4" fill="#d9d0bd"/><circle cx="268" cy="226" r="1.4" fill="#d9d0bd"/><circle cx="268" cy="278" r="1.4" fill="#d9d0bd"/><circle cx="268" cy="330" r="1.4" fill="#d9d0bd"/><circle cx="320" cy="70" r="1.4" fill="#d9d0bd"/><circle cx="320" cy="122" r="1.4" fill="#d9d0bd"/><circle cx="320" cy="174" r="1.4" fill="#d9d0bd"/><circle cx="320" cy="226" r="1.4" fill="#d9d0bd"/><circle cx="320" cy="278" r="1.4" fill="#d9d0bd"/><circle cx="320" cy="330" r="1.4" fill="#d9d0bd"/><circle cx="372" cy="70" r="1.4" fill="#d9d0bd"/><circle cx="372" cy="122" r="1.4" fill="#d9d0bd"/><circle cx="372" cy="174" r="1.4" fill="#d9d0bd"/><circle cx="372" cy="226" r="1.4" fill="#d9d0bd"/><circle cx="372" cy="278" r="1.4" fill="#d9d0bd"/><circle cx="372" cy="330" r="1.4" fill="#d9d0bd"/><circle cx="424" cy="70" r="1.4" fill="#d9d0bd"/><circle cx="424" cy="122" r="1.4" fill="#d9d0bd"/><circle cx="424" cy="174" r="1.4" fill="#d9d0bd"/><circle cx="424" cy="226" r="1.4" fill="#d9d0bd"/><circle cx="424" cy="278" r="1.4" fill="#d9d0bd"/><circle cx="424" cy="330" r="1.4" fill="#d9d0bd"/><circle cx="476" cy="70" r="1.4" fill="#d9d0bd"/><circle cx="476" cy="122" r="1.4" fill="#d9d0bd"/><circle cx="476" cy="174" r="1.4" fill="#d9d0bd"/><circle cx="476" cy="226" r="1.4" fill="#d9d0bd"/><circle cx="476" cy="278" r="1.4" fill="#d9d0bd"/><circle cx="476" cy="330" r="1.4" fill="#d9d0bd"/><circle cx="528" cy="70" r="1.4" fill="#d9d0bd"/><circle cx="528" cy="122" r="1.4" fill="#d9d0bd"/><circle cx="528" cy="174" r="1.4" fill="#d9d0bd"/><circle cx="528" cy="226" r="1.4" fill="#d9d0bd"/><circle cx="528" cy="278" r="1.4" fill="#d9d0bd"/><circle cx="528" cy="330" r="1.4" fill="#d9d0bd"/><circle cx="580" cy="70" r="1.4" fill="#d9d0bd"/><circle cx="580" cy="122" r="1.4" fill="#d9d0bd"/><circle cx="580" cy="174" r="1.4" fill="#d9d0bd"/><circle cx="580" cy="226" r="1.4" fill="#d9d0bd"/><circle cx="580" cy="278" r="1.4" fill="#d9d0bd"/><circle cx="580" cy="330" r="1.4" fill="#d9d0bd"/>
<rect x="16" y="16" width="608" height="368" fill="none" stroke="#e0d8c7" stroke-width="1.5" rx="12"/>
<g transform="rotate(3 320 200)"><path d="M240 200 V280 M400 200 V280" stroke="#d8b86a" fill="none" stroke-width="3.2" stroke-linecap="round" stroke-linejoin="round"/><ellipse cx="320" cy="280" rx="80" ry="22" stroke="#d8b86a" fill="none" stroke-width="3.2" stroke-linecap="round" stroke-linejoin="round"/><ellipse cx="320" cy="250" rx="80" ry="22" stroke="#d8b86a" fill="none" stroke-width="3.2" stroke-linecap="round" stroke-linejoin="round"/><ellipse cx="320" cy="220" rx="80" ry="22" stroke="#d8b86a" fill="none" stroke-width="3.2" stroke-linecap="round" stroke-linejoin="round"/><ellipse cx="320" cy="190" rx="80" ry="22" stroke="#d8b86a" fill="none" stroke-width="3.2" stroke-linecap="round" stroke-linejoin="round"/><rect x="170" y="170" width="40" height="110" rx="5" stroke="#d8b86a" fill="none" stroke-width="3.2" stroke-linecap="round" stroke-linejoin="round" opacity="0.5"/><rect x="430" y="120" width="40" height="160" rx="5" stroke="#d8b86a" fill="none" stroke-width="3.2" stroke-linecap="round" stroke-linejoin="round" opacity="0.5"/></g>
<rect x="40" y="356" width="26" height="3" rx="1.5" fill="#d8b86a"/>
</svg>