<svg xmlns="http://www.w3.org/2000/svg" viewBox="0 0 1600 1000" width="1600" height="1000">
<defs>
<linearGradient id="bg" x1="0" y1="0" x2="1" y2="1"><stop offset="0" stop-color="#F3F1EB"/><stop offset="1" stop-color="#E8E2D6"/></linearGradient>
<radialGradient id="glow" cx="0.63" cy="0.28" r="0.6"><stop offset="0" stop-color="#FBFAF7" stop-opacity="0.85"/><stop offset="1" stop-color="#FBFAF7" stop-opacity="0"/></radialGradient>
<linearGradient id="fade" x1="0" y1="0" x2="0" y2="1"><stop offset="0" stop-color="#8A6F4E" stop-opacity="0.28"/><stop offset="1" stop-color="#8A6F4E" stop-opacity="0"/></linearGradient>
<filter id="grain" x="0" y="0" width="100%" height="100%"><feTurbulence type="fractalNoise" baseFrequency="0.85" numOctaves="2" stitchTiles="stitch"/><feColorMatrix values="0 0 0 0 0.07  0 0 0 0 0.07  0 0 0 0 0.07  0 0 0 0.09 0"/></filter>

</defs>
<rect width="1600" height="1000" fill="url(#bg)"/>
<rect width="1600" height="1000" fill="url(#glow)"/>
<path d="M562 500 L562 210 A290 290 0 0 1 839.4 415.3 Z" fill="#DDD0BC" stroke="#F3F1EB" stroke-width="8"/><path d="M562 500 L839.4 415.3 A290 290 0 0 1 684.2 763 Z" fill="#CFC7BA" stroke="#F3F1EB" stroke-width="8"/><path d="M562 500 L684.2 763 A290 290 0 0 1 447.7 766.5 Z" fill="#121212" stroke="#F3F1EB" stroke-width="8"/><path d="M518.9 491.1 L404.6 757.6 A290 290 0 0 1 518.9 201.1 Z" fill="#8A6F4E" stroke="#F3F1EB" stroke-width="8"/><circle cx="562" cy="500" r="120" fill="#F3F1EB"/><rect x="1012" y="330" width="46" height="46" rx="10" fill="#8A6F4E"/><rect x="1088" y="343" width="181" height="20" rx="10" fill="#121212"/><rect x="1012" y="430" width="46" height="46" rx="10" fill="#121212"/><rect x="1088" y="443" width="202.6" height="20" rx="10" fill="#DDD0BC"/><rect x="1012" y="530" width="46" height="46" rx="10" fill="#CFC7BA"/><rect x="1088" y="543" width="198.4" height="20" rx="10" fill="#DDD0BC"/><rect x="1012" y="630" width="46" height="46" rx="10" fill="#DDD0BC"/><rect x="1088" y="643" width="263.3" height="20" rx="10" fill="#DDD0BC"/>
<rect width="1600" height="1000" filter="url(#grain)"/>
</svg>
