<svg xmlns="http://www.w3.org/2000/svg" viewBox="0 0 640 400" width="640" height="400">
<defs>
<linearGradient id="bgg" x1="0" y1="0" x2="1" y2="1"><stop offset="0" stop-color="#fbf9f4"/><stop offset="1" stop-color="#efe6d5"/></linearGradient>
<linearGradient id="gg" x1="0.12" y1="0" x2="0.88" y2="1"><stop offset="0" stop-color="#e3c777"/><stop offset="0.5" stop-color="#c2a25a"/><stop offset="1" stop-color="#9a7c39"/></linearGradient>
<linearGradient id="tg" x1="0" y1="0" x2="1" y2="1"><stop offset="0" stop-color="#c9a45f"/><stop offset="1" stop-color="#b9933f"/></linearGradient>
<radialGradient id="duo" cx="0.5" cy="0.5" r="0.5"><stop offset="0" stop-color="#ffffff" stop-opacity="0.5"/><stop offset="1" stop-color="#ffffff" stop-opacity="0"/></radialGradient>
<radialGradient id="med" cx="0.5" cy="0.42" r="0.62"><stop offset="0" stop-color="#ffffff" stop-opacity="0.5"/><stop offset="0.75" stop-color="#fbf7ee" stop-opacity="0.18"/><stop offset="1" stop-color="#fbf7ee" stop-opacity="0"/></radialGradient>
</defs>
<rect width="640" height="400" fill="url(#bgg)"/>
<circle cx="490" cy="120" r="40" fill="none" stroke="url(#tg)" stroke-width="1" opacity="0.09"/><circle cx="490" cy="120" r="74" fill="none" stroke="url(#tg)" stroke-width="1" opacity="0.09"/><circle cx="490" cy="120" r="108" fill="none" stroke="url(#tg)" stroke-width="1" opacity="0.09"/><circle cx="490" cy="120" r="142" fill="none" stroke="url(#tg)" stroke-width="1" opacity="0.09"/><circle cx="490" cy="120" r="176" fill="none" stroke="url(#tg)" stroke-width="1" opacity="0.09"/><circle cx="490" cy="120" r="210" fill="none" stroke="url(#tg)" stroke-width="1" opacity="0.09"/><circle cx="490" cy="120" r="244" fill="none" stroke="url(#tg)" stroke-width="1" opacity="0.09"/><circle cx="490" cy="120" r="278" fill="none" stroke="url(#tg)" stroke-width="1" opacity="0.09"/><circle cx="490" cy="120" r="312" fill="none" stroke="url(#tg)" stroke-width="1" opacity="0.09"/><circle cx="490" cy="120" r="346" fill="none" stroke="url(#tg)" stroke-width="1" opacity="0.09"/>
<path d="M0 0 H318 L214 400 H0 Z" fill="url(#duo)"/>
<circle cx="320" cy="200" r="138" fill="url(#med)"/>
<circle cx="320" cy="200" r="138" fill="none" stroke="url(#gg)" stroke-width="1.1" opacity="0.18"/>
<g><path d="M196 250 A124 124 0 0 1 444 250" fill="none" stroke="url(#gg)" stroke-width="22"/><path d="M196 250 A124 124 0 0 1 444 250" fill="none" stroke="#fbf8f1" stroke-width="22" stroke-dasharray="3 36" opacity="0.9"/><path d="M320 250 L252 182" stroke="url(#gg)" stroke-width="7" stroke-linecap="round"/><circle cx="320" cy="250" r="15" fill="url(#gg)"/><circle cx="320" cy="250" r="7" fill="#fbf8f1"/></g>
<circle cx="120" cy="92" r="3" fill="url(#gg)" opacity="0.5"/><circle cx="279" cy="145" r="3" fill="url(#gg)" opacity="0.5"/><circle cx="490" cy="106" r="3" fill="url(#gg)" opacity="0.5"/><circle cx="282" cy="214" r="3" fill="url(#gg)" opacity="0.5"/>
<rect x="16" y="16" width="608" height="368" fill="none" stroke="#e2dac9" stroke-width="1.5" rx="16"/>
<rect x="22" y="22" width="596" height="356" fill="none" stroke="url(#gg)" stroke-width="1" rx="12" opacity="0.28"/>
<path d="M28 64 V28 H75 M565 28 H612 V64 M612 336 V372 H565 M75 372 H28 V336" fill="none" stroke="url(#gg)" stroke-width="1.4" opacity="0.5"/>
<rect x="304" y="356" width="32" height="2.5" rx="1.25" fill="url(#gg)"/>
</svg>