<svg xmlns="http://www.w3.org/2000/svg" viewBox="0 0 640 400" width="640" height="400">
<defs>
<linearGradient id="bgg" x1="0" y1="0" x2="1" y2="1"><stop offset="0" stop-color="#fbf9f4"/><stop offset="1" stop-color="#efe6d5"/></linearGradient>
<linearGradient id="gg" x1="0.12" y1="0" x2="0.88" y2="1"><stop offset="0" stop-color="#e3c777"/><stop offset="0.5" stop-color="#c2a25a"/><stop offset="1" stop-color="#9a7c39"/></linearGradient>
<linearGradient id="tg" x1="0" y1="0" x2="1" y2="1"><stop offset="0" stop-color="#c9a45f"/><stop offset="1" stop-color="#b9933f"/></linearGradient>
<radialGradient id="duo" cx="0.5" cy="0.5" r="0.5"><stop offset="0" stop-color="#ffffff" stop-opacity="0.5"/><stop offset="1" stop-color="#ffffff" stop-opacity="0"/></radialGradient>
<radialGradient id="med" cx="0.5" cy="0.42" r="0.62"><stop offset="0" stop-color="#ffffff" stop-opacity="0.5"/><stop offset="0.75" stop-color="#fbf7ee" stop-opacity="0.18"/><stop offset="1" stop-color="#fbf7ee" stop-opacity="0"/></radialGradient>
</defs>
<rect width="640" height="400" fill="url(#bgg)"/>
<circle cx="64" cy="360" r="70" fill="none" stroke="url(#tg)" stroke-width="1" opacity="0.148"/><circle cx="64" cy="360" r="100" fill="none" stroke="url(#tg)" stroke-width="1" opacity="0.139"/><circle cx="64" cy="360" r="130" fill="none" stroke="url(#tg)" stroke-width="1" opacity="0.129"/><circle cx="64" cy="360" r="160" fill="none" stroke="url(#tg)" stroke-width="1" opacity="0.120"/><circle cx="64" cy="360" r="190" fill="none" stroke="url(#tg)" stroke-width="1" opacity="0.111"/><circle cx="64" cy="360" r="220" fill="none" stroke="url(#tg)" stroke-width="1" opacity="0.101"/><circle cx="64" cy="360" r="250" fill="none" stroke="url(#tg)" stroke-width="1" opacity="0.092"/><circle cx="64" cy="360" r="280" fill="none" stroke="url(#tg)" stroke-width="1" opacity="0.083"/><circle cx="64" cy="360" r="310" fill="none" stroke="url(#tg)" stroke-width="1" opacity="0.073"/><circle cx="64" cy="360" r="340" fill="none" stroke="url(#tg)" stroke-width="1" opacity="0.064"/><circle cx="64" cy="360" r="370" fill="none" stroke="url(#tg)" stroke-width="1" opacity="0.054"/><circle cx="64" cy="360" r="400" fill="none" stroke="url(#tg)" stroke-width="1" opacity="0.045"/>
<path d="M0 0 H304 L161 400 H0 Z" fill="url(#duo)"/>
<circle cx="320" cy="200" r="138" fill="url(#med)"/>
<circle cx="320" cy="200" r="138" fill="none" stroke="url(#gg)" stroke-width="1.1" opacity="0.18"/>
<g><circle cx="256" cy="202" r="62" fill="url(#gg)"/><circle cx="256" cy="202" r="50" fill="#fbf8f1" opacity="0.92"/><path d="M280 178 A28 28 0 1 0 280 226" stroke="url(#gg)" fill="none" stroke-width="7" stroke-linecap="round"/><rect x="226" y="194" width="58" height="7" rx="3.5" fill="url(#gg)"/><rect x="226" y="208" width="54" height="7" rx="3.5" fill="url(#gg)"/><ellipse cx="360" cy="278" rx="20" ry="6.6" fill="#fbf8f1"/><ellipse cx="360" cy="278" rx="20" ry="6.6" stroke="url(#gg)" fill="none" stroke-width="3" stroke-linecap="round" stroke-linejoin="round"/><ellipse cx="360" cy="263" rx="20" ry="6.6" fill="url(#gg)"/><ellipse cx="360" cy="263" rx="20" ry="6.6" stroke="url(#gg)" fill="none" stroke-width="3" stroke-linecap="round" stroke-linejoin="round"/><ellipse cx="406" cy="278" rx="20" ry="6.6" fill="#fbf8f1"/><ellipse cx="406" cy="278" rx="20" ry="6.6" stroke="url(#gg)" fill="none" stroke-width="3" stroke-linecap="round" stroke-linejoin="round"/><ellipse cx="406" cy="263" rx="20" ry="6.6" fill="#fbf8f1"/><ellipse cx="406" cy="263" rx="20" ry="6.6" stroke="url(#gg)" fill="none" stroke-width="3" stroke-linecap="round" stroke-linejoin="round"/><ellipse cx="406" cy="248" rx="20" ry="6.6" fill="url(#gg)"/><ellipse cx="406" cy="248" rx="20" ry="6.6" stroke="url(#gg)" fill="none" stroke-width="3" stroke-linecap="round" stroke-linejoin="round"/><ellipse cx="452" cy="278" rx="20" ry="6.6" fill="#fbf8f1"/><ellipse cx="452" cy="278" rx="20" ry="6.6" stroke="url(#gg)" fill="none" stroke-width="3" stroke-linecap="round" stroke-linejoin="round"/><ellipse cx="452" cy="263" rx="20" ry="6.6" fill="#fbf8f1"/><ellipse cx="452" cy="263" rx="20" ry="6.6" stroke="url(#gg)" fill="none" stroke-width="3" stroke-linecap="round" stroke-linejoin="round"/><ellipse cx="452" cy="248" rx="20" ry="6.6" fill="#fbf8f1"/><ellipse cx="452" cy="248" rx="20" ry="6.6" stroke="url(#gg)" fill="none" stroke-width="3" stroke-linecap="round" stroke-linejoin="round"/><ellipse cx="452" cy="233" rx="20" ry="6.6" fill="#fbf8f1"/><ellipse cx="452" cy="233" rx="20" ry="6.6" stroke="url(#gg)" fill="none" stroke-width="3" stroke-linecap="round" stroke-linejoin="round"/><ellipse cx="452" cy="218" rx="20" ry="6.6" fill="#fbf8f1"/><ellipse cx="452" cy="218" rx="20" ry="6.6" stroke="url(#gg)" fill="none" stroke-width="3" stroke-linecap="round" stroke-linejoin="round"/><ellipse cx="452" cy="203" rx="20" ry="6.6" fill="url(#gg)"/><ellipse cx="452" cy="203" rx="20" ry="6.6" stroke="url(#gg)" fill="none" stroke-width="3" stroke-linecap="round" stroke-linejoin="round"/></g>
<circle cx="376" cy="90" r="2.5" fill="url(#gg)" opacity="0.5"/><circle cx="240" cy="149" r="2.5" fill="url(#gg)" opacity="0.5"/><circle cx="597" cy="159" r="2.5" fill="url(#gg)" opacity="0.5"/><circle cx="112" cy="333" r="2" fill="url(#gg)" opacity="0.5"/>
<rect x="16" y="16" width="608" height="368" fill="none" stroke="#e2dac9" stroke-width="1.5" rx="16"/>
<rect x="22" y="22" width="596" height="356" fill="none" stroke="url(#gg)" stroke-width="1" rx="12" opacity="0.28"/>
<path d="M28 70 V28 H69 M571 28 H612 V70 M612 330 V372 H571 M69 372 H28 V330" fill="none" stroke="url(#gg)" stroke-width="1.4" opacity="0.5"/>
<rect x="304" y="356" width="32" height="2.5" rx="1.25" fill="url(#gg)"/>
</svg>