<svg xmlns="http://www.w3.org/2000/svg" viewBox="0 0 640 400" width="640" height="400">
<defs><linearGradient id="bg" x1="0" y1="0" x2="1" y2="1"><stop offset="0" stop-color="#f7f5ef"/><stop offset="1" stop-color="#efe9dd"/></linearGradient></defs>
<rect width="640" height="400" fill="url(#bg)"/>
<circle cx="60" cy="70" r="1.4" fill="#d9d0bd"/><circle cx="60" cy="122" r="1.4" fill="#d9d0bd"/><circle cx="60" cy="174" r="1.4" fill="#d9d0bd"/><circle cx="60" cy="226" r="1.4" fill="#d9d0bd"/><circle cx="60" cy="278" r="1.4" fill="#d9d0bd"/><circle cx="60" cy="330" r="1.4" fill="#d9d0bd"/><circle cx="112" cy="70" r="1.4" fill="#d9d0bd"/><circle cx="112" cy="122" r="1.4" fill="#d9d0bd"/><circle cx="112" cy="174" r="1.4" fill="#d9d0bd"/><circle cx="112" cy="226" r="1.4" fill="#d9d0bd"/><circle cx="112" cy="278" r="1.4" fill="#d9d0bd"/><circle cx="112" cy="330" r="1.4" fill="#d9d0bd"/><circle cx="164" cy="70" r="1.4" fill="#d9d0bd"/><circle cx="164" cy="122" r="1.4" fill="#d9d0bd"/><circle cx="164" cy="174" r="1.4" fill="#d9d0bd"/><circle cx="164" cy="226" r="1.4" fill="#d9d0bd"/><circle cx="164" cy="278" r="1.4" fill="#d9d0bd"/><circle cx="164" cy="330" r="1.4" fill="#d9d0bd"/><circle cx="216" cy="70" r="1.4" fill="#d9d0bd"/><circle cx="216" cy="122" r="1.4" fill="#d9d0bd"/><circle cx="216" cy="174" r="1.4" fill="#d9d0bd"/><circle cx="216" cy="226" r="1.4" fill="#d9d0bd"/><circle cx="216" cy="278" r="1.4" fill="#d9d0bd"/><circle cx="216" cy="330" r="1.4" fill="#d9d0bd"/><circle cx="268" cy="70" r="1.4" fill="#d9d0bd"/><circle cx="268" cy="122" r="1.4" fill="#d9d0bd"/><circle cx="268" cy="174" r="1.4" fill="#d9d0bd"/><circle cx="268" cy="226" r="1.4" fill="#d9d0bd"/><circle cx="268" cy="278" r="1.4" fill="#d9d0bd"/><circle cx="268" cy="330" r="1.4" fill="#d9d0bd"/><circle cx="320" cy="70" r="1.4" fill="#d9d0bd"/><circle cx="320" cy="122" r="1.4" fill="#d9d0bd"/><circle cx="320" cy="174" r="1.4" fill="#d9d0bd"/><circle cx="320" cy="226" r="1.4" fill="#d9d0bd"/><circle cx="320" cy="278" r="1.4" fill="#d9d0bd"/><circle cx="320" cy="330" r="1.4" fill="#d9d0bd"/><circle cx="372" cy="70" r="1.4" fill="#d9d0bd"/><circle cx="372" cy="122" r="1.4" fill="#d9d0bd"/><circle cx="372" cy="174" r="1.4" fill="#d9d0bd"/><circle cx="372" cy="226" r="1.4" fill="#d9d0bd"/><circle cx="372" cy="278" r="1.4" fill="#d9d0bd"/><circle cx="372" cy="330" r="1.4" fill="#d9d0bd"/><circle cx="424" cy="70" r="1.4" fill="#d9d0bd"/><circle cx="424" cy="122" r="1.4" fill="#d9d0bd"/><circle cx="424" cy="174" r="1.4" fill="#d9d0bd"/><circle cx="424" cy="226" r="1.4" fill="#d9d0bd"/><circle cx="424" cy="278" r="1.4" fill="#d9d0bd"/><circle cx="424" cy="330" r="1.4" fill="#d9d0bd"/><circle cx="476" cy="70" r="1.4" fill="#d9d0bd"/><circle cx="476" cy="122" r="1.4" fill="#d9d0bd"/><circle cx="476" cy="174" r="1.4" fill="#d9d0bd"/><circle cx="476" cy="226" r="1.4" fill="#d9d0bd"/><circle cx="476" cy="278" r="1.4" fill="#d9d0bd"/><circle cx="476" cy="330" r="1.4" fill="#d9d0bd"/><circle cx="528" cy="70" r="1.4" fill="#d9d0bd"/><circle cx="528" cy="122" r="1.4" fill="#d9d0bd"/><circle cx="528" cy="174" r="1.4" fill="#d9d0bd"/><circle cx="528" cy="226" r="1.4" fill="#d9d0bd"/><circle cx="528" cy="278" r="1.4" fill="#d9d0bd"/><circle cx="528" cy="330" r="1.4" fill="#d9d0bd"/><circle cx="580" cy="70" r="1.4" fill="#d9d0bd"/><circle cx="580" cy="122" r="1.4" fill="#d9d0bd"/><circle cx="580" cy="174" r="1.4" fill="#d9d0bd"/><circle cx="580" cy="226" r="1.4" fill="#d9d0bd"/><circle cx="580" cy="278" r="1.4" fill="#d9d0bd"/><circle cx="580" cy="330" r="1.4" fill="#d9d0bd"/>
<rect x="16" y="16" width="608" height="368" fill="none" stroke="#e0d8c7" stroke-width="1.5" rx="12"/>
<g transform="rotate(3 320 200)"><path d="M340 200 L509.94140080580587 204.46321545082105" stroke="#d8b86a" fill="none" stroke-linecap="round" stroke-linejoin="round" stroke-width="1.6" opacity="0.3"/><path d="M340 200 L239.61744911318397 62.80180949642306" stroke="#d8b86a" fill="none" stroke-linecap="round" stroke-linejoin="round" stroke-width="1.6" opacity="0.3"/><path d="M340 200 L340.49046599037285 30.000707521730305" stroke="#d8b86a" fill="none" stroke-linecap="round" stroke-linejoin="round" stroke-width="1.6" opacity="0.3"/><path d="M340 200 L308.68427275645195 367.09076942550627" stroke="#d8b86a" fill="none" stroke-linecap="round" stroke-linejoin="round" stroke-width="1.6" opacity="0.3"/><path d="M340 200 L408.5913300047093 44.4518420289553" stroke="#d8b86a" fill="none" stroke-linecap="round" stroke-linejoin="round" stroke-width="1.6" opacity="0.3"/><circle cx="340" cy="200" r="40" stroke="#d8b86a" fill="none" stroke-width="3.2" stroke-linecap="round" stroke-linejoin="round" opacity="0.8"/><circle cx="340" cy="200" r="80" stroke="#d8b86a" fill="none" stroke-width="3.2" stroke-linecap="round" stroke-linejoin="round" opacity="0.6"/><circle cx="340" cy="200" r="120" stroke="#d8b86a" fill="none" stroke-width="3.2" stroke-linecap="round" stroke-linejoin="round" opacity="0.4"/><circle cx="340" cy="200" r="160" stroke="#d8b86a" fill="none" stroke-width="3.2" stroke-linecap="round" stroke-linejoin="round" opacity="0.19999999999999996"/><circle cx="340" cy="200" r="8" fill="#d8b86a"/></g>
<rect x="40" y="356" width="26" height="3" rx="1.5" fill="#d8b86a"/>
</svg>