<svg xmlns="http://www.w3.org/2000/svg" viewBox="0 0 640 400" width="640" height="400">
<defs><linearGradient id="bg" x1="0" y1="0" x2="1" y2="1"><stop offset="0" stop-color="#f8f6f0"/><stop offset="1" stop-color="#efe9dc"/></linearGradient></defs>
<rect width="640" height="400" fill="url(#bg)"/>
<circle cx="480" cy="90" r="150" fill="none" stroke="#e7dcc2" stroke-width="38" opacity="0.5"/>
<circle cx="70" cy="78" r="1.5" fill="#e7dcc2"/><circle cx="70" cy="136" r="1.5" fill="#e7dcc2"/><circle cx="70" cy="194" r="1.5" fill="#e7dcc2"/><circle cx="70" cy="252" r="1.5" fill="#e7dcc2"/><circle cx="70" cy="310" r="1.5" fill="#e7dcc2"/><circle cx="128" cy="78" r="1.5" fill="#e7dcc2"/><circle cx="128" cy="136" r="1.5" fill="#e7dcc2"/><circle cx="128" cy="194" r="1.5" fill="#e7dcc2"/><circle cx="128" cy="252" r="1.5" fill="#e7dcc2"/><circle cx="128" cy="310" r="1.5" fill="#e7dcc2"/><circle cx="186" cy="78" r="1.5" fill="#e7dcc2"/><circle cx="186" cy="136" r="1.5" fill="#e7dcc2"/><circle cx="186" cy="194" r="1.5" fill="#e7dcc2"/><circle cx="186" cy="252" r="1.5" fill="#e7dcc2"/><circle cx="186" cy="310" r="1.5" fill="#e7dcc2"/><circle cx="244" cy="78" r="1.5" fill="#e7dcc2"/><circle cx="244" cy="136" r="1.5" fill="#e7dcc2"/><circle cx="244" cy="194" r="1.5" fill="#e7dcc2"/><circle cx="244" cy="252" r="1.5" fill="#e7dcc2"/><circle cx="244" cy="310" r="1.5" fill="#e7dcc2"/><circle cx="302" cy="78" r="1.5" fill="#e7dcc2"/><circle cx="302" cy="136" r="1.5" fill="#e7dcc2"/><circle cx="302" cy="194" r="1.5" fill="#e7dcc2"/><circle cx="302" cy="252" r="1.5" fill="#e7dcc2"/><circle cx="302" cy="310" r="1.5" fill="#e7dcc2"/><circle cx="360" cy="78" r="1.5" fill="#e7dcc2"/><circle cx="360" cy="136" r="1.5" fill="#e7dcc2"/><circle cx="360" cy="194" r="1.5" fill="#e7dcc2"/><circle cx="360" cy="252" r="1.5" fill="#e7dcc2"/><circle cx="360" cy="310" r="1.5" fill="#e7dcc2"/><circle cx="418" cy="78" r="1.5" fill="#e7dcc2"/><circle cx="418" cy="136" r="1.5" fill="#e7dcc2"/><circle cx="418" cy="194" r="1.5" fill="#e7dcc2"/><circle cx="418" cy="252" r="1.5" fill="#e7dcc2"/><circle cx="418" cy="310" r="1.5" fill="#e7dcc2"/><circle cx="476" cy="78" r="1.5" fill="#e7dcc2"/><circle cx="476" cy="136" r="1.5" fill="#e7dcc2"/><circle cx="476" cy="194" r="1.5" fill="#e7dcc2"/><circle cx="476" cy="252" r="1.5" fill="#e7dcc2"/><circle cx="476" cy="310" r="1.5" fill="#e7dcc2"/><circle cx="534" cy="78" r="1.5" fill="#e7dcc2"/><circle cx="534" cy="136" r="1.5" fill="#e7dcc2"/><circle cx="534" cy="194" r="1.5" fill="#e7dcc2"/><circle cx="534" cy="252" r="1.5" fill="#e7dcc2"/><circle cx="534" cy="310" r="1.5" fill="#e7dcc2"/>
<rect x="16" y="16" width="608" height="368" fill="none" stroke="#e0d8c7" stroke-width="1.5" rx="14"/>
<g transform="rotate(-2 320 200)"><rect x="160" y="103" width="34" height="167" rx="4" fill="#caa863" opacity="0.4"/><rect x="212" y="210" width="34" height="60" rx="4" fill="#caa863" opacity="0.49"/><rect x="264" y="163" width="34" height="107" rx="4" fill="#caa863" opacity="0.5800000000000001"/><rect x="316" y="158" width="34" height="112" rx="4" fill="#caa863" opacity="0.67"/><rect x="368" y="200" width="34" height="70" rx="4" fill="#caa863" opacity="0.76"/><rect x="420" y="173" width="34" height="97" rx="4" fill="#caa863" opacity="0.85"/><polyline points="177,89 229,196 281,149 333,144 385,186 437,159" stroke="#caa863" fill="none" stroke-width="3" stroke-linecap="round" stroke-linejoin="round"/><line x1="150" y1="270" x2="480" y2="270" stroke="#16181c" stroke-width="2" opacity="0.35"/></g>
<rect x="40" y="356" width="28" height="3" rx="1.5" fill="#caa863"/>
</svg>