<svg xmlns="http://www.w3.org/2000/svg" viewBox="0 0 640 400" width="640" height="400">
<defs><linearGradient id="bg" x1="0" y1="0" x2="1" y2="1"><stop offset="0" stop-color="#f7f5ef"/><stop offset="1" stop-color="#efe9dd"/></linearGradient></defs>
<rect width="640" height="400" fill="url(#bg)"/>
<circle cx="60" cy="70" r="1.4" fill="#d9d0bd"/><circle cx="60" cy="122" r="1.4" fill="#d9d0bd"/><circle cx="60" cy="174" r="1.4" fill="#d9d0bd"/><circle cx="60" cy="226" r="1.4" fill="#d9d0bd"/><circle cx="60" cy="278" r="1.4" fill="#d9d0bd"/><circle cx="60" cy="330" r="1.4" fill="#d9d0bd"/><circle cx="112" cy="70" r="1.4" fill="#d9d0bd"/><circle cx="112" cy="122" r="1.4" fill="#d9d0bd"/><circle cx="112" cy="174" r="1.4" fill="#d9d0bd"/><circle cx="112" cy="226" r="1.4" fill="#d9d0bd"/><circle cx="112" cy="278" r="1.4" fill="#d9d0bd"/><circle cx="112" cy="330" r="1.4" fill="#d9d0bd"/><circle cx="164" cy="70" r="1.4" fill="#d9d0bd"/><circle cx="164" cy="122" r="1.4" fill="#d9d0bd"/><circle cx="164" cy="174" r="1.4" fill="#d9d0bd"/><circle cx="164" cy="226" r="1.4" fill="#d9d0bd"/><circle cx="164" cy="278" r="1.4" fill="#d9d0bd"/><circle cx="164" cy="330" r="1.4" fill="#d9d0bd"/><circle cx="216" cy="70" r="1.4" fill="#d9d0bd"/><circle cx="216" cy="122" r="1.4" fill="#d9d0bd"/><circle cx="216" cy="174" r="1.4" fill="#d9d0bd"/><circle cx="216" cy="226" r="1.4" fill="#d9d0bd"/><circle cx="216" cy="278" r="1.4" fill="#d9d0bd"/><circle cx="216" cy="330" r="1.4" fill="#d9d0bd"/><circle cx="268" cy="70" r="1.4" fill="#d9d0bd"/><circle cx="268" cy="122" r="1.4" fill="#d9d0bd"/><circle cx="268" cy="174" r="1.4" fill="#d9d0bd"/><circle cx="268" cy="226" r="1.4" fill="#d9d0bd"/><circle cx="268" cy="278" r="1.4" fill="#d9d0bd"/><circle cx="268" cy="330" r="1.4" fill="#d9d0bd"/><circle cx="320" cy="70" r="1.4" fill="#d9d0bd"/><circle cx="320" cy="122" r="1.4" fill="#d9d0bd"/><circle cx="320" cy="174" r="1.4" fill="#d9d0bd"/><circle cx="320" cy="226" r="1.4" fill="#d9d0bd"/><circle cx="320" cy="278" r="1.4" fill="#d9d0bd"/><circle cx="320" cy="330" r="1.4" fill="#d9d0bd"/><circle cx="372" cy="70" r="1.4" fill="#d9d0bd"/><circle cx="372" cy="122" r="1.4" fill="#d9d0bd"/><circle cx="372" cy="174" r="1.4" fill="#d9d0bd"/><circle cx="372" cy="226" r="1.4" fill="#d9d0bd"/><circle cx="372" cy="278" r="1.4" fill="#d9d0bd"/><circle cx="372" cy="330" r="1.4" fill="#d9d0bd"/><circle cx="424" cy="70" r="1.4" fill="#d9d0bd"/><circle cx="424" cy="122" r="1.4" fill="#d9d0bd"/><circle cx="424" cy="174" r="1.4" fill="#d9d0bd"/><circle cx="424" cy="226" r="1.4" fill="#d9d0bd"/><circle cx="424" cy="278" r="1.4" fill="#d9d0bd"/><circle cx="424" cy="330" r="1.4" fill="#d9d0bd"/><circle cx="476" cy="70" r="1.4" fill="#d9d0bd"/><circle cx="476" cy="122" r="1.4" fill="#d9d0bd"/><circle cx="476" cy="174" r="1.4" fill="#d9d0bd"/><circle cx="476" cy="226" r="1.4" fill="#d9d0bd"/><circle cx="476" cy="278" r="1.4" fill="#d9d0bd"/><circle cx="476" cy="330" r="1.4" fill="#d9d0bd"/><circle cx="528" cy="70" r="1.4" fill="#d9d0bd"/><circle cx="528" cy="122" r="1.4" fill="#d9d0bd"/><circle cx="528" cy="174" r="1.4" fill="#d9d0bd"/><circle cx="528" cy="226" r="1.4" fill="#d9d0bd"/><circle cx="528" cy="278" r="1.4" fill="#d9d0bd"/><circle cx="528" cy="330" r="1.4" fill="#d9d0bd"/><circle cx="580" cy="70" r="1.4" fill="#d9d0bd"/><circle cx="580" cy="122" r="1.4" fill="#d9d0bd"/><circle cx="580" cy="174" r="1.4" fill="#d9d0bd"/><circle cx="580" cy="226" r="1.4" fill="#d9d0bd"/><circle cx="580" cy="278" r="1.4" fill="#d9d0bd"/><circle cx="580" cy="330" r="1.4" fill="#d9d0bd"/>
<rect x="16" y="16" width="608" height="368" fill="none" stroke="#e0d8c7" stroke-width="1.5" rx="12"/>
<g transform="rotate(-3 320 200)"><g stroke="#c8a96e" fill="none" stroke-width="3.2" stroke-linecap="round" stroke-linejoin="round"><path d="M210 150 H430 L355 235 V300 L285 330 V235 Z"/><path d="M320 360 V330" stroke-width="2.4"/><circle cx="320" cy="372" r="6" fill="#c8a96e"/></g><circle cx="317" cy="120" r="5" fill="#c8a96e" opacity="0.8"/><circle cx="266" cy="134" r="4" fill="#c8a96e" opacity="0.5"/><circle cx="328" cy="148" r="3" fill="#c8a96e" opacity="0.5"/><circle cx="251" cy="162" r="3" fill="#c8a96e" opacity="0.8"/><circle cx="362" cy="176" r="5" fill="#c8a96e" opacity="0.8"/><circle cx="316" cy="190" r="3" fill="#c8a96e" opacity="1"/><path d="M150 120 a120 120 0 0 1 60 -40" stroke="#c8a96e" fill="none" stroke-width="3.2" stroke-linecap="round" stroke-linejoin="round" opacity="0.4"/></g>
<rect x="40" y="356" width="26" height="3" rx="1.5" fill="#c8a96e"/>
</svg>