<svg xmlns="http://www.w3.org/2000/svg" viewBox="0 0 640 400" width="640" height="400">
<defs>
<linearGradient id="bgg" x1="0" y1="0" x2="1" y2="1"><stop offset="0" stop-color="#faf8f3"/><stop offset="1" stop-color="#efe7d8"/></linearGradient>
<linearGradient id="gg" x1="0" y1="0" x2="1" y2="1"><stop offset="0" stop-color="#d8b86a"/><stop offset="0.55" stop-color="#bd9a52"/><stop offset="1" stop-color="#9c7e3c"/></linearGradient>
</defs>
<rect width="640" height="400" fill="url(#bgg)"/>
<circle cx="540" cy="90" r="170" fill="url(#gg)" opacity="0.05"/>
<circle cx="110" cy="200" r="150" fill="none" stroke="#e9dfc8" stroke-width="34" opacity="0.5"/>
<circle cx="78" cy="86" r="1.4" fill="#e9dfc8"/><circle cx="78" cy="148" r="1.4" fill="#e9dfc8"/><circle cx="78" cy="210" r="1.4" fill="#e9dfc8"/><circle cx="78" cy="272" r="1.4" fill="#e9dfc8"/><circle cx="78" cy="334" r="1.4" fill="#e9dfc8"/><circle cx="140" cy="86" r="1.4" fill="#e9dfc8"/><circle cx="140" cy="148" r="1.4" fill="#e9dfc8"/><circle cx="140" cy="210" r="1.4" fill="#e9dfc8"/><circle cx="140" cy="272" r="1.4" fill="#e9dfc8"/><circle cx="140" cy="334" r="1.4" fill="#e9dfc8"/><circle cx="202" cy="86" r="1.4" fill="#e9dfc8"/><circle cx="202" cy="148" r="1.4" fill="#e9dfc8"/><circle cx="202" cy="210" r="1.4" fill="#e9dfc8"/><circle cx="202" cy="272" r="1.4" fill="#e9dfc8"/><circle cx="202" cy="334" r="1.4" fill="#e9dfc8"/><circle cx="264" cy="86" r="1.4" fill="#e9dfc8"/><circle cx="264" cy="148" r="1.4" fill="#e9dfc8"/><circle cx="264" cy="210" r="1.4" fill="#e9dfc8"/><circle cx="264" cy="272" r="1.4" fill="#e9dfc8"/><circle cx="264" cy="334" r="1.4" fill="#e9dfc8"/><circle cx="326" cy="86" r="1.4" fill="#e9dfc8"/><circle cx="326" cy="148" r="1.4" fill="#e9dfc8"/><circle cx="326" cy="210" r="1.4" fill="#e9dfc8"/><circle cx="326" cy="272" r="1.4" fill="#e9dfc8"/><circle cx="326" cy="334" r="1.4" fill="#e9dfc8"/><circle cx="388" cy="86" r="1.4" fill="#e9dfc8"/><circle cx="388" cy="148" r="1.4" fill="#e9dfc8"/><circle cx="388" cy="210" r="1.4" fill="#e9dfc8"/><circle cx="388" cy="272" r="1.4" fill="#e9dfc8"/><circle cx="388" cy="334" r="1.4" fill="#e9dfc8"/><circle cx="450" cy="86" r="1.4" fill="#e9dfc8"/><circle cx="450" cy="148" r="1.4" fill="#e9dfc8"/><circle cx="450" cy="210" r="1.4" fill="#e9dfc8"/><circle cx="450" cy="272" r="1.4" fill="#e9dfc8"/><circle cx="450" cy="334" r="1.4" fill="#e9dfc8"/><circle cx="512" cy="86" r="1.4" fill="#e9dfc8"/><circle cx="512" cy="148" r="1.4" fill="#e9dfc8"/><circle cx="512" cy="210" r="1.4" fill="#e9dfc8"/><circle cx="512" cy="272" r="1.4" fill="#e9dfc8"/><circle cx="512" cy="334" r="1.4" fill="#e9dfc8"/><circle cx="574" cy="86" r="1.4" fill="#e9dfc8"/><circle cx="574" cy="148" r="1.4" fill="#e9dfc8"/><circle cx="574" cy="210" r="1.4" fill="#e9dfc8"/><circle cx="574" cy="272" r="1.4" fill="#e9dfc8"/><circle cx="574" cy="334" r="1.4" fill="#e9dfc8"/>
<rect x="14" y="14" width="612" height="372" fill="none" stroke="#e2dac9" stroke-width="1.5" rx="16"/>
<rect x="20" y="20" width="600" height="360" fill="none" stroke="url(#gg)" stroke-width="1" rx="13" opacity="0.35"/>
<g transform="rotate(0 320 200)"><rect x="190" y="100" width="176" height="208" rx="12" stroke="url(#gg)" fill="none" stroke-width="5" stroke-linecap="round" stroke-linejoin="round"/><rect x="190" y="100" width="176" height="208" rx="12" fill="url(#gg)" opacity="0.05"/><path d="M218 148 H338 M218 184 H338 M218 220 H300" stroke="url(#gg)" fill="none" stroke-width="2.6" stroke-linecap="round" stroke-linejoin="round"/><circle cx="398" cy="248" r="44" stroke="url(#gg)" fill="none" stroke-width="5" stroke-linecap="round" stroke-linejoin="round"/><line x1="429" y1="279" x2="462" y2="312" stroke="url(#gg)" fill="none" stroke-width="5" stroke-linecap="round" stroke-linejoin="round"/></g>
<rect x="40" y="356" width="30" height="3" rx="1.5" fill="url(#gg)"/>
</svg>